<?xml version="1.0" standalone="no"?>
<svg viewBox="0 0 200 200" xmlns="http://www.w3.org/2000/svg">
  <path fill="#9071BB" d="M33.5,-51.9C42.8,-39.4,49.3,-28.8,59.1,-15.3C68.8,-1.8,82,14.6,78.5,25.6C75.1,36.7,55,42.4,39.2,49.9C23.3,57.3,11.7,66.5,-0.1,66.6C-11.9,66.8,-23.8,57.9,-36.9,49.6C-50.1,41.3,-64.5,33.4,-72.2,20.8C-80,8.2,-81.1,-9.3,-74.2,-22.1C-67.2,-34.9,-52.3,-43.1,-38.6,-54.2C-24.9,-65.2,-12.4,-79,-0.2,-78.8C12.1,-78.6,24.2,-64.3,33.5,-51.9Z" transform="translate(100 100)" />
</svg>
